# xmcd
#
# Track frame offsets:
#	150
#	21448
#	35173
#	54871
#	73872
#	91144
#	107853
#	128551
#	147276
#	164092
#	177840
#
# Disc length: 2558 seconds
#
# Revision: 1
# Processed by: cddbd v1.5.2PL0 Copyright (c) Steve Scherf et al.
# Submitted via: audiograbber 1.83.01
#
DISCID=9b09fc0b
DTITLE=Everett, Jace - Terra Rosa
DYEAR=2013
DGENRE=Country
TTITLE0=In the Garden
TTITLE1=No Place to Hide
TTITLE2=Lloyd's Summer Vacation
TTITLE3=Beyond the Wall
TTITLE4=Pennsylvania
TTITLE5=Great Fish, The
TTITLE6=Rise Up
TTITLE7=Love Cut Me Down
TTITLE8=Like a Song
TTITLE9=Saphira
TTITLE10=Pretty Good Plan
EXTD=
EXTT0=
EXTT1=
EXTT2=
EXTT3=
EXTT4=
EXTT5=
EXTT6=
EXTT7=
EXTT8=
EXTT9=
EXTT10=
PLAYORDER=
